<?xml version="1.0" encoding="UTF-8"?>
<!-- Generator: Adobe Illustrator 22.1.0, SVG Export Plug-In . SVG Version: 6.00 Build 0)  -->
<svg xmlns="http://www.w3.org/2000/svg" xmlns:xlink="http://www.w3.org/1999/xlink" version="1.1" id="Gruppe_1" x="0px" y="0px" viewBox="0 0 510.2 128.8" style="enable-background:new 0 0 510.2 128.8;" xml:space="preserve">
<style type="text/css">
	.st0{fill:#555756;}
	.st1{fill-rule:evenodd;clip-rule:evenodd;fill:#9B9D9D;stroke:#9B9D9D;stroke-width:0.216;stroke-miterlimit:22.9256;}
	.st2{fill-rule:evenodd;clip-rule:evenodd;fill:#0057A0;stroke:#0057A0;stroke-width:0.216;stroke-miterlimit:22.9256;}
	.st3{fill-rule:evenodd;clip-rule:evenodd;fill:#E82B21;stroke:#E82B21;stroke-width:0.216;stroke-miterlimit:22.9256;}
</style>
<g>
	<g>
		<path class="st0" d="M185.9,60.6V42.8h2.4v17.7H185.9z"></path>
		<path class="st0" d="M201.7,60.6v-8c0-1.9-0.8-3-2.9-3c-1.3,0-2.3,0.8-2.9,1.9c-0.4,0.9-0.5,2.2-0.5,3.2v5.9h-2.2V47.9h1.9    l0.2,1.9c0.7-1.4,2.5-2.2,4-2.2c3,0,4.5,1.7,4.5,4.6v8.3H201.7z"></path>
		<path class="st0" d="M217.1,59.5c-1,1-2.6,1.4-4.3,1.4c-1.6,0-3.1-0.4-4.3-1.4c-0.8-0.7-1.3-1.8-1.3-2.9h2.2c0,0.9,0.4,1.5,1.1,2    c0.6,0.4,1.5,0.6,2.4,0.6c0.9,0,1.7-0.1,2.4-0.7c0.4-0.3,0.6-0.8,0.6-1.4c0-0.9-0.7-1.6-2-1.8l-3-0.4c-2-0.3-3.2-1.5-3.2-3.4    c0-1,0.5-1.9,1.1-2.5c0.9-0.8,2.2-1.4,3.9-1.4c1.7,0,3.3,0.5,4.2,1.6c0.6,0.7,0.9,1.4,0.9,2.4h-2.2c0-0.6-0.4-1.2-0.8-1.6    c-0.5-0.5-1.3-0.7-2.2-0.7c-0.5,0-0.9,0-1.5,0.2c-0.8,0.3-1.3,1-1.3,1.7c0,1,0.7,1.5,1.8,1.6c0.7,0.1,1.8,0.2,3.2,0.4    c1.9,0.3,3.3,1.6,3.3,3.5C218.2,58,217.7,58.8,217.1,59.5z"></path>
		<path class="st0" d="M226,60.7c-2.8,0-3.6-1.7-3.6-3.4v-7.6h-2.5v-1.8h2.5v-3.2l2.2-0.5v3.7h3.9v1.8h-3.9v7.3    c0,1.2,0.5,1.7,1.8,1.7c0.9,0,2.3-0.2,2.3-0.2v1.8C228,60.5,227.2,60.7,226,60.7z"></path>
		<path class="st0" d="M231.6,45v-2.5h2.6V45H231.6z M231.8,60.6V47.9h2.3v12.6H231.8z"></path>
		<path class="st0" d="M243,60.7c-2.8,0-3.6-1.7-3.6-3.4v-7.6h-2.5v-1.8h2.5v-3.2l2.2-0.5v3.7h3.9v1.8h-3.9v7.3    c0,1.2,0.5,1.7,1.8,1.7c0.9,0,2.3-0.2,2.3-0.2v1.8C245.1,60.5,244.3,60.7,243,60.7z"></path>
		<path class="st0" d="M257.2,60.6l-0.2-1.9c-0.7,1.4-2.4,2.2-3.9,2.2c-3,0-4.5-1.7-4.5-4.6v-8.3h2.2v8c0,1.9,0.7,3,2.8,3    c0.9,0,1.6-0.4,2.2-0.9c0.8-0.8,1.1-2.2,1.1-3.5v-6.6h2.2v12.6H257.2z"></path>
		<path class="st0" d="M268.1,60.7c-2.8,0-3.6-1.7-3.6-3.4v-7.6H262v-1.8h2.5v-3.2l2.2-0.5v3.7h3.9v1.8h-3.9v7.3    c0,1.2,0.5,1.7,1.8,1.7c0.9,0,2.3-0.2,2.3-0.2v1.8C270.1,60.5,269.3,60.7,268.1,60.7z"></path>
		<path class="st0" d="M284.5,54.9h-9.3c0,1.1,0.5,2.4,1.3,3.2c0.6,0.6,1.4,0.9,2.4,0.9c1,0,1.9-0.3,2.4-0.8    c0.4-0.3,0.6-0.7,0.8-1.4h2.2c-0.2,1.2-1,2.4-2,3.1c-0.9,0.6-2.1,0.9-3.3,0.9c-1.8,0-3.3-0.7-4.4-1.9c-1.1-1.2-1.6-2.9-1.6-4.7    c0-1.5,0.3-2.9,1-4c0.9-1.5,2.7-2.6,5-2.6c1.7,0,3,0.6,4,1.6c1.1,1.1,1.7,2.7,1.7,4.4L284.5,54.9z M281.4,50.5    c-0.5-0.7-1.4-1.1-2.6-1.1c-2.4,0-3.6,1.9-3.6,3.7h7C282.2,52.2,282,51.2,281.4,50.5z"></path>
		<path class="st0" d="M302.9,59.4c-1,0.9-2.3,1.5-4,1.5c-1.7,0-3-0.6-4-1.5c-1.4-1.3-1.9-3.2-1.9-5.2c0-2,0.4-3.8,1.9-5.2    c1-0.9,2.3-1.5,4-1.5c1.7,0,3,0.6,4,1.5c1.4,1.3,1.9,3.2,1.9,5.2C304.8,56.2,304.4,58.1,302.9,59.4z M301.3,50.3    c-0.5-0.5-1.3-0.9-2.4-0.9c-1,0-1.8,0.4-2.4,0.9c-0.9,0.9-1.2,2.4-1.2,3.9s0.3,3,1.2,3.9c0.5,0.5,1.3,0.9,2.4,0.9    c1,0,1.8-0.4,2.4-0.9c0.9-0.9,1.2-2.4,1.2-3.9S302.3,51.2,301.3,50.3z"></path>
		<path class="st0" d="M313.3,44.1c-1.2,0-1.9,0.7-1.9,1.7v2.1h3.8v1.8h-3.8v10.8h-2.2V49.7h-2.4v-1.8h2.4v-2.2    c0-1.9,1.5-3.4,3.8-3.4c0.9,0,1.7,0.1,2.4,0.2v1.8C314.7,44.2,314.2,44.1,313.3,44.1z"></path>
		<path class="st0" d="M188.2,73.6v5.8h8.6v2.1h-8.6v7.8h-2.3V71.6h11.9v2H188.2z"></path>
		<path class="st0" d="M209.3,88.1c-1,0.9-2.3,1.5-4,1.5c-1.7,0-3-0.6-4-1.5c-1.4-1.3-1.9-3.2-1.9-5.2c0-2,0.4-3.8,1.9-5.2    c1-0.9,2.3-1.5,4-1.5c1.7,0,3,0.6,4,1.5c1.4,1.3,1.9,3.2,1.9,5.2C211.2,85,210.8,86.8,209.3,88.1z M207.7,79    c-0.5-0.5-1.3-0.9-2.4-0.9c-1,0-1.8,0.4-2.4,0.9c-0.9,0.9-1.2,2.4-1.2,3.9c0,1.5,0.3,3,1.2,3.9c0.5,0.5,1.3,0.9,2.4,0.9    c1,0,1.8-0.4,2.4-0.9c0.9-0.9,1.2-2.4,1.2-3.9C209,81.5,208.7,80,207.7,79z"></path>
		<path class="st0" d="M220.9,78.6c-1,0-1.9,0.4-2.5,1c-1.1,1-1.2,2.7-1.2,4v5.6H215V76.6h1.9l0.2,2.2c0.7-1.5,2.3-2.3,3.9-2.3    c0.3,0,0.7,0,1,0.1v2.1C221.7,78.6,221.3,78.6,220.9,78.6z"></path>
		<path class="st0" d="M241,89.3v-8c0-1.8-0.6-3-2.7-3c-0.8,0-1.5,0.3-2,0.8c-0.9,0.9-1.1,2.1-1.1,3.5v6.7h-2.2v-8    c0-1.8-0.5-3-2.6-3c-0.9,0-1.7,0.4-2.2,1.1c-0.6,0.8-0.9,2.1-0.9,3.2v6.7h-2.2V76.6h1.9l0.2,1.8c0.7-1.4,2.2-2.1,3.7-2.1    c1.9,0,3.3,0.8,3.9,2.4c0.7-1.6,2.4-2.4,4-2.4c3,0,4.4,1.8,4.4,4.6v8.3H241z"></path>
		<path class="st0" d="M247.7,73.7v-2.5h2.6v2.5H247.7z M247.9,89.3V76.6h2.3v12.6H247.9z"></path>
		<path class="st0" d="M263.3,89.3v-8c0-1.9-0.8-3-2.9-3c-1.3,0-2.3,0.8-2.9,1.9c-0.4,0.9-0.5,2.2-0.5,3.2v5.9h-2.2V76.6h1.9    l0.2,1.9c0.7-1.4,2.5-2.2,4-2.2c3,0,4.5,1.7,4.5,4.6v8.3H263.3z"></path>
		<path class="st0" d="M280.2,93.7c-1.3,1.2-3.4,1.5-5.3,1.5c-1.7,0-3.7-0.3-5-1.5c-0.5-0.5-0.9-1.2-0.9-2.2c0-1.3,0.8-2.3,1.9-2.8    c-0.9-0.3-1.5-1.1-1.5-2.1c0-1.1,0.8-2,1.7-2.4c-1-0.8-1.5-2.1-1.5-3.3c0-1.4,0.5-2.3,1.2-3.1c0.9-0.9,2.2-1.4,3.9-1.4    c1.2,0,2.2,0.3,3,0.7c0.4-1.1,1.5-1.8,2.7-1.8c0.2,0,0.4,0,0.6,0v1.7c-0.1,0-0.3,0-0.5,0c-0.9,0-1.5,0.4-1.6,1.1    c0.5,0.7,0.9,1.5,0.9,2.6c0,1.2-0.5,2.2-1.2,3c-0.9,0.9-2.2,1.5-3.9,1.5c-0.9,0-1.4-0.1-2.2-0.4c-0.5,0.1-1.1,0.5-1.1,1.1    c-0.1,1.1,1.1,1.2,2,1.2c0.9,0,2.6,0,2.6,0c1.6,0,3.3,0.3,4.3,1.3c0.6,0.6,1,1.4,1,2.5C281.3,92.3,280.8,93.1,280.2,93.7z     M275,89.2h-2.4c-0.9,0.3-1.7,1-1.7,2c0,0.6,0.2,1,0.5,1.3c0.9,0.8,2.4,0.9,3.5,0.9c1.1,0,2.7-0.1,3.6-0.9    c0.3-0.3,0.5-0.7,0.5-1.3C279.2,89,276.7,89.2,275,89.2z M274.7,78c-1.8,0-3,1.2-3,2.8c0,1.6,1.1,2.8,3,2.8c1.8,0,3-1.2,3-2.8    C277.6,79.2,276.5,78,274.7,78z"></path>
		<path class="st0" d="M295.1,73.6v15.6h-2.3V73.6h-5.5v-2.1h13.3v2.1H295.1z"></path>
		<path class="st0" d="M313.9,83.7h-9.3c0,1.1,0.5,2.4,1.3,3.2c0.6,0.6,1.4,0.9,2.4,0.9c1,0,1.9-0.3,2.4-0.8    c0.4-0.4,0.6-0.7,0.8-1.4h2.2c-0.2,1.2-1,2.4-2,3.1c-0.9,0.6-2.1,0.9-3.3,0.9c-1.8,0-3.3-0.7-4.4-1.9c-1.1-1.2-1.6-2.9-1.6-4.7    c0-1.5,0.3-2.9,1-4c0.9-1.5,2.7-2.6,5-2.6c1.7,0,3,0.6,4,1.6c1.1,1.1,1.7,2.7,1.7,4.4L313.9,83.7z M310.9,79.3    c-0.5-0.7-1.4-1.1-2.6-1.1c-2.4,0-3.6,1.9-3.6,3.7h7C311.7,80.9,311.4,79.9,310.9,79.3z"></path>
		<path class="st0" d="M326.3,88.2c-0.9,0.9-2.2,1.4-3.8,1.4c-2.4,0-3.9-1-4.8-2.4c-0.7-1-1.1-2.4-1.1-4.3c0-1.9,0.4-3.3,1.1-4.3    c0.9-1.3,2.4-2.4,4.8-2.4c1.6,0,2.8,0.5,3.7,1.3c0.9,0.8,1.5,1.9,1.6,3.2h-2.2c-0.1-0.9-0.4-1.5-0.9-2c-0.5-0.5-1.3-0.8-2.1-0.8    c-1,0-1.7,0.3-2.3,0.8c-1,0.8-1.3,2.4-1.3,4c0,1.5,0.3,3.1,1.3,4c0.6,0.5,1.3,0.8,2.3,0.8c0.9,0,1.7-0.3,2.2-0.8    c0.5-0.5,0.8-1.1,0.9-1.9h2.2C327.7,86.4,327.2,87.4,326.3,88.2z"></path>
		<path class="st0" d="M339.8,89.3v-8c0-1.9-0.8-3-2.9-3c-1.3,0-2.3,0.8-2.9,1.9c-0.4,0.9-0.5,2.2-0.5,3.2v5.9h-2.2v-18h2.2v7.1    c0.8-1.3,2.4-2,3.8-2c3,0,4.6,1.7,4.6,4.6v8.3H339.8z"></path>
		<path class="st0" d="M355,89.3v-8c0-1.9-0.8-3-2.9-3c-1.3,0-2.3,0.8-2.9,1.9c-0.4,0.9-0.5,2.2-0.5,3.2v5.9h-2.2V76.6h1.9l0.2,1.9    c0.7-1.4,2.5-2.2,4-2.2c3,0,4.5,1.7,4.5,4.6v8.3H355z"></path>
		<path class="st0" d="M370.6,88.1c-1,0.9-2.3,1.5-4,1.5c-1.7,0-3-0.6-4-1.5c-1.4-1.3-1.9-3.2-1.9-5.2c0-2,0.4-3.8,1.9-5.2    c1-0.9,2.3-1.5,4-1.5c1.7,0,3,0.6,4,1.5c1.4,1.3,1.9,3.2,1.9,5.2C372.5,85,372,86.8,370.6,88.1z M369,79c-0.5-0.5-1.3-0.9-2.4-0.9    c-1,0-1.8,0.4-2.4,0.9c-0.9,0.9-1.2,2.4-1.2,3.9c0,1.5,0.3,3,1.2,3.9c0.5,0.5,1.3,0.9,2.4,0.9c1,0,1.8-0.4,2.4-0.9    c0.9-0.9,1.2-2.4,1.2-3.9C370.2,81.5,369.9,80,369,79z"></path>
		<path class="st0" d="M378.9,89.4c-1.9,0-2.7-1.1-2.7-3.1V71.3h2.2v15c0,0.8,0.3,1.3,1.2,1.3c0.7,0,0.9,0,0.9,0v1.8    C380.5,89.3,380,89.4,378.9,89.4z"></path>
		<path class="st0" d="M392.6,88.1c-1,0.9-2.3,1.5-4,1.5c-1.7,0-3-0.6-4-1.5c-1.4-1.3-1.9-3.2-1.9-5.2c0-2,0.4-3.8,1.9-5.2    c1-0.9,2.3-1.5,4-1.5c1.7,0,3,0.6,4,1.5c1.4,1.3,1.9,3.2,1.9,5.2C394.5,85,394,86.8,392.6,88.1z M391,79c-0.5-0.5-1.3-0.9-2.4-0.9    c-1,0-1.8,0.4-2.4,0.9c-0.9,0.9-1.2,2.4-1.2,3.9c0,1.5,0.3,3,1.2,3.9c0.5,0.5,1.3,0.9,2.4,0.9c1,0,1.8-0.4,2.4-0.9    c0.9-0.9,1.2-2.4,1.2-3.9C392.2,81.5,391.9,80,391,79z"></path>
		<path class="st0" d="M408.4,93.7c-1.3,1.2-3.4,1.5-5.3,1.5c-1.7,0-3.7-0.3-5-1.5c-0.5-0.5-0.9-1.2-0.9-2.2c0-1.3,0.8-2.3,1.9-2.8    c-0.9-0.3-1.5-1.1-1.5-2.1c0-1.1,0.8-2,1.7-2.4c-1-0.8-1.5-2.1-1.5-3.3c0-1.4,0.5-2.3,1.2-3.1c0.9-0.9,2.2-1.4,3.9-1.4    c1.2,0,2.2,0.3,3,0.7c0.4-1.1,1.5-1.8,2.7-1.8c0.2,0,0.4,0,0.6,0v1.7c-0.1,0-0.3,0-0.5,0c-0.9,0-1.5,0.4-1.6,1.1    c0.5,0.7,0.9,1.5,0.9,2.6c0,1.2-0.5,2.2-1.2,3c-0.9,0.9-2.2,1.5-3.9,1.5c-0.9,0-1.4-0.1-2.2-0.4c-0.5,0.1-1.1,0.5-1.1,1.1    c-0.1,1.1,1.1,1.2,2,1.2c0.9,0,2.6,0,2.6,0c1.6,0,3.3,0.3,4.3,1.3c0.6,0.6,1,1.4,1,2.5C409.5,92.3,409,93.1,408.4,93.7z     M403.2,89.2h-2.4c-0.9,0.3-1.7,1-1.7,2c0,0.6,0.2,1,0.5,1.3c0.9,0.8,2.4,0.9,3.5,0.9c1.1,0,2.7-0.1,3.6-0.9    c0.3-0.3,0.5-0.7,0.5-1.3C407.3,89,404.9,89.2,403.2,89.2z M402.8,78c-1.8,0-3,1.2-3,2.8c0,1.6,1.1,2.8,3,2.8c1.8,0,3-1.2,3-2.8    C405.8,79.2,404.7,78,402.8,78z"></path>
		<path class="st0" d="M416.6,91.9c-0.6,1.6-1.6,2.7-3.6,2.7c-1.1,0-1.8-0.2-2-0.2v-1.8c0,0,0.7,0.2,1.6,0.2c0.9,0,1.6-0.3,2-1.3    l0.8-2.1l-5.2-12.6h2.5l3.9,10l3.7-10h2.3L416.6,91.9z"></path>
		<path class="st0" d="M440.7,89.5c-1.2,0-1.9-0.8-1.9-1.9h-0.1c-0.8,1.3-2.4,2.1-4.2,2.1c-3,0-4.5-1.9-4.5-3.9    c0-1.6,1.1-3.7,4.7-3.9l4-0.2v-0.9c0-0.6-0.1-1.4-0.7-1.9c-0.4-0.4-1.1-0.6-2.2-0.6c-1.2,0-1.9,0.3-2.4,0.7    c-0.4,0.4-0.6,0.9-0.6,1.5h-2.2c0-1.1,0.5-2,1.1-2.6c0.9-0.9,2.4-1.3,4-1.3c2.5,0,4,1,4.6,2.4c0.3,0.6,0.4,1.2,0.4,1.9v6.1    c0,0.7,0.3,0.8,0.7,0.8c0.2,0,0.6-0.1,0.6-0.1v1.6C441.7,89.4,441.2,89.5,440.7,89.5z M438.7,83.2l-3.5,0.2    c-1.3,0.1-2.9,0.7-2.9,2.3c0,1.1,0.7,2.2,2.6,2.2c1,0,2-0.3,2.7-1c0.8-0.8,1.1-1.8,1.1-2.9V83.2z"></path>
		<path class="st0" d="M454,89.3v-8c0-1.9-0.8-3-2.9-3c-1.3,0-2.3,0.8-2.9,1.9c-0.4,0.9-0.5,2.2-0.5,3.2v5.9h-2.2V76.6h1.9l0.2,1.9    c0.7-1.4,2.5-2.2,4-2.2c3,0,4.5,1.7,4.5,4.6v8.3H454z"></path>
		<path class="st0" d="M469.5,89.3l-0.2-1.6c-0.8,1.3-2.4,2-3.9,2c-1.6,0-2.9-0.5-3.7-1.4c-1.2-1.2-1.9-3.1-1.9-5.2    c0-2.2,0.7-4.2,2-5.4c0.9-0.8,2.1-1.3,3.6-1.3c1.4,0,3.1,0.6,3.8,1.8v-6.9h2.2v18H469.5z M467.9,78.9c-0.5-0.4-1.2-0.8-2.1-0.8    c-2.9,0-3.7,2.5-3.7,4.8c0,2.3,0.8,4.8,3.7,4.8c1,0,1.6-0.4,2.1-0.8c1.1-0.9,1.5-2.4,1.5-4C469.3,81.4,469,79.9,467.9,78.9z"></path>
		<path class="st0" d="M185.9,118v-17.7h2.3v15.6h8.8v2.1H185.9z"></path>
		<path class="st0" d="M199.7,102.5V100h2.6v2.5H199.7z M199.8,118v-12.6h2.3V118H199.8z"></path>
		<path class="st0" d="M217,122.4c-1.3,1.2-3.4,1.5-5.3,1.5c-1.7,0-3.7-0.3-5-1.5c-0.5-0.5-0.9-1.2-0.9-2.2c0-1.3,0.8-2.3,1.9-2.8    c-0.9-0.3-1.5-1.1-1.5-2.1c0-1.1,0.8-2,1.7-2.4c-1-0.8-1.5-2.1-1.5-3.3c0-1.4,0.5-2.3,1.2-3.1c0.9-0.9,2.2-1.4,3.9-1.4    c1.2,0,2.2,0.3,3,0.7c0.4-1.1,1.5-1.8,2.7-1.8c0.2,0,0.4,0,0.6,0v1.7c-0.1,0-0.3,0-0.5,0c-0.9,0-1.5,0.4-1.6,1.1    c0.5,0.7,0.9,1.5,0.9,2.6c0,1.2-0.5,2.2-1.2,3c-0.9,0.9-2.2,1.5-3.9,1.5c-0.9,0-1.4-0.1-2.2-0.4c-0.5,0.1-1.1,0.5-1.1,1.1    c-0.1,1.1,1.1,1.2,2,1.2c0.9,0,2.6,0,2.6,0c1.6,0,3.3,0.3,4.3,1.3c0.6,0.6,1,1.4,1,2.5C218.1,121,217.6,121.8,217,122.4z     M211.8,117.9h-2.4c-0.9,0.3-1.7,1-1.7,2c0,0.6,0.2,1,0.5,1.3c0.9,0.8,2.4,0.9,3.5,0.9c1.1,0,2.7-0.1,3.6-0.9    c0.3-0.3,0.5-0.7,0.5-1.3C216,117.7,213.5,117.9,211.8,117.9z M211.5,106.8c-1.8,0-3,1.2-3,2.8s1.1,2.8,3,2.8c1.8,0,3-1.2,3-2.8    S213.3,106.8,211.5,106.8z"></path>
		<path class="st0" d="M229.3,118v-8c0-1.9-0.8-3-2.9-3c-1.3,0-2.3,0.8-2.9,1.9c-0.4,0.9-0.5,2.2-0.5,3.2v5.9h-2.2v-18h2.2v7.1    c0.8-1.3,2.4-2,3.8-2c3,0,4.6,1.7,4.6,4.6v8.3H229.3z"></path>
		<path class="st0" d="M240.3,118.2c-2.8,0-3.6-1.7-3.6-3.4v-7.6h-2.5v-1.8h2.5v-3.2l2.2-0.5v3.7h3.9v1.8h-3.9v7.3    c0,1.2,0.5,1.7,1.8,1.7c0.9,0,2.3-0.2,2.3-0.2v1.8C242.3,118,241.5,118.2,240.3,118.2z"></path>
		<path class="st0" d="M259.2,118h-2.1l-3.4-9.7l-3.5,9.7H248l-3.4-12.6h2.2l2.5,9.5l3.3-9.4h1.9l3.3,9.4l2.5-9.5h2.2L259.2,118z"></path>
		<path class="st0" d="M276.5,112.4h-9.3c0,1.1,0.5,2.4,1.3,3.2c0.6,0.6,1.4,0.9,2.4,0.9c1,0,1.9-0.3,2.4-0.8    c0.4-0.4,0.6-0.7,0.8-1.4h2.2c-0.2,1.2-1,2.4-2,3.1c-0.9,0.6-2.1,0.9-3.3,0.9c-1.8,0-3.3-0.7-4.4-1.9c-1.1-1.2-1.6-2.9-1.6-4.7    c0-1.5,0.3-2.9,1-4c0.9-1.5,2.7-2.6,5-2.6c1.7,0,3,0.6,4,1.6c1.1,1.1,1.7,2.7,1.7,4.4L276.5,112.4z M273.5,108    c-0.5-0.7-1.4-1.1-2.6-1.1c-2.4,0-3.6,1.9-3.6,3.7h7C274.3,109.6,274,108.7,273.5,108z"></path>
		<path class="st0" d="M280.1,102.5V100h2.6v2.5H280.1z M280.3,118v-12.6h2.3V118H280.3z"></path>
		<path class="st0" d="M297.4,122.4c-1.3,1.2-3.4,1.5-5.3,1.5c-1.7,0-3.7-0.3-5-1.5c-0.5-0.5-0.9-1.2-0.9-2.2c0-1.3,0.8-2.3,1.9-2.8    c-0.9-0.3-1.5-1.1-1.5-2.1c0-1.1,0.8-2,1.7-2.4c-1-0.8-1.5-2.1-1.5-3.3c0-1.4,0.5-2.3,1.2-3.1c0.9-0.9,2.2-1.4,3.9-1.4    c1.2,0,2.2,0.3,3,0.7c0.4-1.1,1.5-1.8,2.7-1.8c0.2,0,0.4,0,0.6,0v1.7c-0.1,0-0.3,0-0.5,0c-0.9,0-1.5,0.4-1.6,1.1    c0.5,0.7,0.9,1.5,0.9,2.6c0,1.2-0.5,2.2-1.2,3c-0.9,0.9-2.2,1.5-3.9,1.5c-0.9,0-1.4-0.1-2.2-0.4c-0.5,0.1-1.1,0.5-1.1,1.1    c-0.1,1.1,1.1,1.2,2,1.2c0.9,0,2.6,0,2.6,0c1.6,0,3.3,0.3,4.3,1.3c0.6,0.6,1,1.4,1,2.5C298.5,121,298,121.8,297.4,122.4z     M292.3,117.9h-2.4c-0.9,0.3-1.7,1-1.7,2c0,0.6,0.2,1,0.5,1.3c0.9,0.8,2.4,0.9,3.5,0.9c1.1,0,2.7-0.1,3.6-0.9    c0.3-0.3,0.5-0.7,0.5-1.3C296.4,117.7,293.9,117.9,292.3,117.9z M291.9,106.8c-1.8,0-3,1.2-3,2.8s1.1,2.8,3,2.8c1.8,0,3-1.2,3-2.8    S293.8,106.8,291.9,106.8z"></path>
		<path class="st0" d="M309.7,118v-8c0-1.9-0.8-3-2.9-3c-1.3,0-2.3,0.8-2.9,1.9c-0.4,0.9-0.5,2.2-0.5,3.2v5.9h-2.2v-18h2.2v7.1    c0.8-1.3,2.4-2,3.8-2c3,0,4.6,1.7,4.6,4.6v8.3H309.7z"></path>
		<path class="st0" d="M320.7,118.2c-2.8,0-3.6-1.7-3.6-3.4v-7.6h-2.5v-1.8h2.5v-3.2l2.2-0.5v3.7h3.9v1.8h-3.9v7.3    c0,1.2,0.5,1.7,1.8,1.7c0.9,0,2.3-0.2,2.3-0.2v1.8C322.7,118,321.9,118.2,320.7,118.2z"></path>
		<path class="st0" d="M343.7,116.5c-1.1,1.1-2.9,1.9-4.9,1.9c-1.8,0-3.7-0.6-5-1.9c-2-1.9-2.3-4.5-2.3-7.3c0-2.8,0.3-5.4,2.3-7.3    c1.3-1.2,3.1-1.9,5-1.9c2,0,3.8,0.7,4.9,1.8c1.1,1.1,1.7,2.4,1.8,4h-2.4c0-1-0.4-1.8-1-2.5c-0.7-0.8-1.9-1.3-3.3-1.3    c-1.2,0-2.5,0.5-3.3,1.3c-1.5,1.5-1.6,3.9-1.6,5.7c0,1.8,0.1,4.2,1.6,5.7c0.9,0.9,2.1,1.3,3.3,1.3c1.4,0,2.6-0.6,3.3-1.3    c0.6-0.7,1-1.6,1-2.5h2.4C345.4,114,344.7,115.4,343.7,116.5z"></path>
		<path class="st0" d="M357.7,116.9c-1,0.9-2.3,1.5-4,1.5c-1.7,0-3-0.6-4-1.5c-1.4-1.3-1.9-3.2-1.9-5.2c0-2,0.4-3.8,1.9-5.2    c1-0.9,2.3-1.5,4-1.5c1.7,0,3,0.6,4,1.5c1.4,1.3,1.9,3.2,1.9,5.2C359.6,113.7,359.1,115.5,357.7,116.9z M356.1,107.8    c-0.5-0.5-1.3-0.9-2.4-0.9c-1,0-1.8,0.4-2.4,0.9c-0.9,0.9-1.2,2.4-1.2,3.9c0,1.5,0.3,3,1.2,3.9c0.5,0.5,1.3,0.9,2.4,0.9    c1,0,1.8-0.4,2.4-0.9c0.9-0.9,1.2-2.4,1.2-3.9C357.3,110.2,357,108.7,356.1,107.8z"></path>
		<path class="st0" d="M379.3,118v-8c0-1.8-0.6-3-2.7-3c-0.8,0-1.5,0.3-2,0.8c-0.9,0.9-1.1,2.1-1.1,3.5v6.7h-2.2v-8    c0-1.8-0.5-3-2.6-3c-0.9,0-1.7,0.4-2.2,1.1c-0.6,0.8-0.9,2.1-0.9,3.2v6.7h-2.2v-12.6h1.9l0.2,1.8c0.7-1.4,2.2-2.1,3.7-2.1    c1.9,0,3.3,0.8,3.9,2.4c0.7-1.6,2.4-2.4,4-2.4c3,0,4.4,1.8,4.4,4.6v8.3H379.3z"></path>
		<path class="st0" d="M395.8,117.1c-0.9,0.8-2.1,1.3-3.6,1.3c-1.4,0-3.1-0.6-3.8-1.8v6.9h-2.2v-18h1.9l0.2,1.6c0.8-1.3,2.4-2,3.9-2    c1.6,0,2.9,0.5,3.7,1.4c1.2,1.2,1.9,3.1,1.9,5.2C397.8,113.9,397.1,115.9,395.8,117.1z M391.8,106.9c-1,0-1.6,0.4-2.1,0.8    c-1.1,0.9-1.5,2.4-1.5,4c0,1.6,0.4,3.1,1.5,4c0.5,0.4,1.2,0.8,2.1,0.8c2.9,0,3.7-2.5,3.7-4.8S394.7,106.9,391.8,106.9z"></path>
		<path class="st0" d="M410.4,116.9c-1,0.9-2.3,1.5-4,1.5c-1.7,0-3-0.6-4-1.5c-1.4-1.3-1.9-3.2-1.9-5.2c0-2,0.4-3.8,1.9-5.2    c1-0.9,2.3-1.5,4-1.5c1.7,0,3,0.6,4,1.5c1.4,1.3,1.9,3.2,1.9,5.2C412.2,113.7,411.8,115.5,410.4,116.9z M408.8,107.8    c-0.5-0.5-1.3-0.9-2.4-0.9c-1,0-1.8,0.4-2.4,0.9c-0.9,0.9-1.2,2.4-1.2,3.9c0,1.5,0.3,3,1.2,3.9c0.5,0.5,1.3,0.9,2.4,0.9    c1,0,1.8-0.4,2.4-0.9c0.9-0.9,1.2-2.4,1.2-3.9C410,110.2,409.7,108.7,408.8,107.8z"></path>
		<path class="st0" d="M424.4,118v-8c0-1.9-0.8-3-2.9-3c-1.3,0-2.3,0.8-2.9,1.9c-0.4,0.9-0.5,2.2-0.5,3.2v5.9H416v-12.6h1.9l0.2,1.9    c0.7-1.4,2.5-2.2,4-2.2c3,0,4.5,1.7,4.5,4.6v8.3H424.4z"></path>
		<path class="st0" d="M441.7,112.4h-9.3c0,1.1,0.5,2.4,1.3,3.2c0.6,0.6,1.4,0.9,2.4,0.9c1,0,1.9-0.3,2.4-0.8    c0.4-0.4,0.6-0.7,0.8-1.4h2.2c-0.2,1.2-1,2.4-2,3.1c-0.9,0.6-2.1,0.9-3.3,0.9c-1.8,0-3.3-0.7-4.4-1.9c-1.1-1.2-1.6-2.9-1.6-4.7    c0-1.5,0.3-2.9,1-4c0.9-1.5,2.7-2.6,5-2.6c1.7,0,3,0.6,4,1.6c1.1,1.1,1.7,2.7,1.7,4.4L441.7,112.4z M438.7,108    c-0.5-0.7-1.4-1.1-2.6-1.1c-2.4,0-3.6,1.9-3.6,3.7h7C439.5,109.6,439.2,108.7,438.7,108z"></path>
		<path class="st0" d="M453.9,118v-8c0-1.9-0.8-3-2.9-3c-1.3,0-2.3,0.8-2.9,1.9c-0.4,0.9-0.5,2.2-0.5,3.2v5.9h-2.2v-12.6h1.9    l0.2,1.9c0.7-1.4,2.5-2.2,4-2.2c3,0,4.5,1.7,4.5,4.6v8.3H453.9z"></path>
		<path class="st0" d="M464.8,118.2c-2.8,0-3.6-1.7-3.6-3.4v-7.6h-2.5v-1.8h2.5v-3.2l2.2-0.5v3.7h3.9v1.8h-3.9v7.3    c0,1.2,0.5,1.7,1.8,1.7c0.9,0,2.3-0.2,2.3-0.2v1.8C466.8,118,466,118.2,464.8,118.2z"></path>
		<path class="st0" d="M479.3,116.9c-1,1-2.6,1.4-4.3,1.4c-1.6,0-3.1-0.4-4.3-1.4c-0.8-0.7-1.3-1.8-1.3-2.9h2.2c0,0.9,0.4,1.5,1.1,2    c0.6,0.4,1.5,0.6,2.4,0.6c0.9,0,1.7-0.1,2.4-0.7c0.4-0.3,0.6-0.8,0.6-1.4c0-0.9-0.7-1.6-2-1.8l-3-0.4c-2-0.3-3.2-1.5-3.2-3.4    c0-1,0.5-1.9,1.1-2.5c0.9-0.8,2.2-1.4,3.9-1.4c1.7,0,3.3,0.5,4.2,1.6c0.6,0.7,0.9,1.4,0.9,2.4h-2.2c0-0.6-0.4-1.2-0.8-1.6    c-0.5-0.5-1.3-0.7-2.2-0.7c-0.5,0-0.9,0-1.5,0.3c-0.8,0.3-1.3,1-1.3,1.7c0,1.1,0.7,1.5,1.8,1.6c0.7,0.1,1.8,0.2,3.2,0.4    c1.9,0.3,3.3,1.6,3.3,3.5C480.3,115.4,479.9,116.3,479.3,116.9z"></path>
	</g>
	<path class="st1" d="M49.4,111.1c-0.1,2.7-0.8,4.7-2.1,6.1c-1.3,1.4-3.2,2.1-5.7,2.2l0,0c-2.5-0.1-4.4-0.8-5.7-2.2   c-1.3-1.4-2-3.4-2.2-6.1c0,0,0,0,0-59.9c0.1-2.7,0.8-4.7,2.2-6.1c1.3-1.4,3.2-2.1,5.7-2.2l0,0c2.5,0.1,4.4,0.8,5.7,2.2   c1.3,1.4,2,3.4,2.1,6.1V111.1z"></path>
	<path class="st2" d="M90,105.4c1.9,0,3.6-0.2,5.2-0.7c1.6-0.5,3-1.2,4.3-2.1l0,0c2.2-1.8,3.8-3.8,4.9-6.2c1.1-2.4,1.7-5,1.7-8.1   l0,0c0-12.3,0-24.7,0-37.1l0,0c0.1-2.7,0.8-4.7,2.2-6.1c1.3-1.4,3.2-2.1,5.7-2.2l0,0c2.5,0.1,4.4,0.8,5.7,2.2   c1.3,1.4,2,3.4,2.2,6.1l0,0c0,12.5,0,25.1,0,37.7l0,0c0,4.2-0.8,8-2.2,11.6c-1.5,3.7-3.7,7-6.6,10.1l0,0c-3.3,3.1-6.8,5.4-10.7,7   c-3.9,1.6-7.9,2.3-12.3,2.4l0,0c-4.4,0-8.4-0.8-12.3-2.4c-3.9-1.6-7.4-3.9-10.7-7l0,0c-3-3.1-5.1-6.4-6.6-10.1   c-1.5-3.7-2.2-7.5-2.2-11.6l0,0c0-12.5,0-25.1,0-37.7l0,0c0.1-2.7,0.8-4.7,2.2-6.1c1.3-1.4,3.2-2.1,5.7-2.2l0,0   c2.5,0.1,4.4,0.8,5.7,2.2c1.3,1.4,2,3.4,2.2,6.1l0,0c0,12.3,0,24.7,0,37.1l0,0c0,3,0.6,5.6,1.7,8.1c1.1,2.4,2.7,4.4,4.9,6.2l0,0   c1.3,1,2.8,1.7,4.3,2.1C86.4,105.1,88.1,105.3,90,105.4z"></path>
	<path class="st2" d="M146.5,104.1c6.1,0,12.2,0,18.4,0l0,0c2.5,0.1,4.3,0.8,5.6,2c1.3,1.2,1.9,3,2,5.3l0,0c-0.1,2.3-0.8,4-2,5.2   c-1.3,1.2-3.1,1.9-5.6,2l0,0c-8.8,0-17.5,0-26.3,0l0,0c-2.5,0-4.4-0.6-5.7-2c-1.3-1.4-2.1-3.4-2.2-6.1l0,0c0-19.7,0-39.5,0-59.3   l0,0c0.1-2.7,0.8-4.7,2.1-6.1c1.3-1.4,3.2-2.1,5.7-2.2l0,0c2.5,0.1,4.4,0.8,5.7,2.2c1.3,1.4,2,3.4,2.1,6.1l0,0   C146.5,68.8,146.5,86.5,146.5,104.1z"></path>
	<path class="st3" d="M51.3,32.2c-1.8,2.9-5.7,5.5-9.8,5.5c-6.4,0-11.6-5.2-11.6-11.6c0-4,2-7.5,5-9.6C47.3,8.5,61.8,4.4,79.2,4   c17.4-0.3,36.9,3,59.3,10.3C117,9.5,99.3,8.6,84.6,11.6C70,14.6,59.8,20.2,51.3,32.2z"></path>
</g>
</svg>
